<?xml version="1.0" encoding="UTF-8"?>
<!DOCTYPE svg PUBLIC "-//W3C//DTD SVG 1.1//EN" "http://www.w3.org/Graphics/SVG/1.1/DTD/svg11.dtd">
<!-- Creator: CorelDRAW 2020 (64-Bit) -->
<svg xmlns="http://www.w3.org/2000/svg" xml:space="preserve" width="100%" height="100%" version="1.1" style="shape-rendering:geometricPrecision; text-rendering:geometricPrecision; image-rendering:optimizeQuality; fill-rule:evenodd; clip-rule:evenodd"
viewBox="0 0 728.35 433.07"
 xmlns:xlink="http://www.w3.org/1999/xlink"
 xmlns:xodm="http://www.corel.com/coreldraw/odm/2003">
 <defs>
  <style type="text/css">
   <![CDATA[
    .str0 {stroke:#2B2A29;stroke-width:3;stroke-miterlimit:22.9256}
    .fil2 {fill:none}
    .fil1 {fill:#2B2A29}
    .fil0 {fill:#2B2A29;fill-rule:nonzero}
   ]]>
  </style>
 </defs>
 <g id="Metal1Outline">
  <metadata id="CorelCorpID_0Corel-Layer"/>
  <path class="fil0" d="M253.41 172.69l-17.5 14.75 -198.75 0 29.5 -167.75 198.75 0 12.25 15 -24.25 138zm-27.33 -15l19.04 -108.25 -153.46 0 -19.3 108.25 153.71 0z"/>
  <path id="1" class="fil0" d="M501.41 49.44l-213.71 0 5.21 -29.75 213.75 0 -5.25 29.75zm-8 46l-184.09 0 -10.87 62.25 183.96 0 -5.25 29.75 -198.75 0 -12.25 -15 16.08 -91.83 17.75 -14.92 198.67 0 -5.25 29.75z"/>
  <polygon id="2" class="fil0" points="703.41,187.44 504.66,187.44 492.16,172.69 519.16,19.69 549.37,19.69 524.74,157.69 708.66,157.69 "/>
  <path class="fil1 str0" d="M330.81 301.33l-45.32 -0.09 36.72 27.93 -14.09 45.29 36.61 -28.09 36.61 28.09 -14.09 -45.29 36.72 -27.93 -45.32 0.09 -13.92 -45.35 -13.92 45.35zm4.25 6.21l9.67 -31.49 9.67 31.49 31.47 -0.06 -25.5 19.4 9.78 31.45 -25.43 -19.5 -25.43 19.5 9.78 -31.45 -25.5 -19.4 31.47 0.06z"/>
  <circle class="fil2 str0" cx="344.81" cy="321.55" r="98.42"/>
  <circle class="fil2 str0" cx="344.94" cy="321.07" r="82.02"/>
  <path class="fil1 str0" d="M262.93 321.07c0,-45.3 36.72,-82.02 82.02,-82.02 45.3,0 82.02,36.72 82.02,82.02 0,45.3 -36.72,82.02 -82.02,82.02 -45.3,0 -82.02,-36.72 -82.02,-82.02zm81.88 98.9c54.36,0 98.42,-44.06 98.42,-98.42 0,-54.36 -44.06,-98.42 -98.42,-98.42 -54.36,0 -98.42,44.06 -98.42,98.42 0,54.36 44.06,98.42 98.42,98.42z"/>
 </g>
</svg>
