<?xml version="1.0" encoding="UTF-8"?>
<!DOCTYPE svg PUBLIC "-//W3C//DTD SVG 1.1//EN" "http://www.w3.org/Graphics/SVG/1.1/DTD/svg11.dtd">
<!-- Creator: CorelDRAW 2020 (64-Bit) -->
<svg xmlns="http://www.w3.org/2000/svg" xml:space="preserve" width="100%" height="100%" version="1.1" style="shape-rendering:geometricPrecision; text-rendering:geometricPrecision; image-rendering:optimizeQuality; fill-rule:evenodd; clip-rule:evenodd"
viewBox="0 0 708.66 236.22"
 xmlns:xlink="http://www.w3.org/1999/xlink"
 xmlns:xodm="http://www.corel.com/coreldraw/odm/2003">
 <defs>
  <style type="text/css">
   <![CDATA[
    .fil0 {fill:#2B2A29;fill-rule:nonzero}
   ]]>
  </style>
 </defs>
 <g id="Metal1Outline">
  <metadata id="CorelCorpID_0Corel-Layer"/>
  <path class="fil0" d="M226.09 202.21l-17.5 14.75 -198.75 0 29.5 -167.75 198.75 0 12.25 15 -24.25 138zm-27.33 -15l19.04 -108.25 -153.46 0 -19.3 108.25 153.71 0z"/>
  <path id="1" class="fil0" d="M474.09 78.96l-213.71 0 5.21 -29.75 213.75 0 -5.25 29.75zm-8 46l-184.09 0 -10.87 62.25 183.96 0 -5.25 29.75 -198.75 0 -12.25 -15 16.08 -91.83 17.75 -14.92 198.67 0 -5.25 29.75z"/>
  <polygon id="2" class="fil0" points="676.09,216.96 477.35,216.96 464.85,202.21 491.85,49.21 522.05,49.21 497.43,187.21 681.35,187.21 "/>
 </g>
</svg>
