G04*
G04 #@! TF.GenerationSoftware,Altium Limited,Altium Designer,21.9.2 (33)*
G04*
G04 Layer_Physical_Order=2*
G04 Layer_Color=16711680*
%FSLAX44Y44*%
%MOMM*%
G71*
G04*
G04 #@! TF.SameCoordinates,8E8D2D65-0791-42D9-92B5-5118B9BC109D*
G04*
G04*
G04 #@! TF.FilePolarity,Positive*
G04*
G01*
G75*
%ADD10C,0.2500*%
%ADD71C,1.0000*%
%ADD73C,6.0000*%
%ADD74C,1.6000*%
G04:AMPARAMS|DCode=75|XSize=1.6mm|YSize=1.6mm|CornerRadius=0.4mm|HoleSize=0mm|Usage=FLASHONLY|Rotation=0.000|XOffset=0mm|YOffset=0mm|HoleType=Round|Shape=RoundedRectangle|*
%AMROUNDEDRECTD75*
21,1,1.6000,0.8000,0,0,0.0*
21,1,0.8000,1.6000,0,0,0.0*
1,1,0.8000,0.4000,-0.4000*
1,1,0.8000,-0.4000,-0.4000*
1,1,0.8000,-0.4000,0.4000*
1,1,0.8000,0.4000,0.4000*
%
%ADD75ROUNDEDRECTD75*%
%ADD76C,0.7000*%
%ADD77C,1.0000*%
G36*
X1068295Y742120D02*
X1072485Y741114D01*
X1076466Y739465D01*
X1080139Y737214D01*
X1083416Y734415D01*
X1086214Y731139D01*
X1088465Y727466D01*
X1090114Y723485D01*
X1091120Y719295D01*
X1091456Y715024D01*
X1091451Y715000D01*
Y597349D01*
X1090181Y597199D01*
X1089528Y599919D01*
X1087600Y604573D01*
X1084969Y608867D01*
X1081697Y612697D01*
X1077867Y615969D01*
X1073573Y618600D01*
X1068919Y620528D01*
X1064021Y621704D01*
X1059000Y622099D01*
X1053979Y621704D01*
X1049081Y620528D01*
X1044427Y618600D01*
X1040133Y615969D01*
X1036303Y612697D01*
X1033031Y608867D01*
X1030400Y604573D01*
X1028472Y599919D01*
X1027296Y595021D01*
X1026901Y590000D01*
X1027296Y584979D01*
X1028472Y580081D01*
X1030400Y575427D01*
X1033031Y571133D01*
X1036303Y567303D01*
X1040133Y564031D01*
X1044427Y561400D01*
X1049081Y559472D01*
X1051816Y558815D01*
X1051665Y557546D01*
X495270Y557546D01*
X494017Y557546D01*
X494000Y557549D01*
X492767Y557639D01*
X489705Y557880D01*
X485515Y558886D01*
X481535Y560535D01*
X477861Y562786D01*
X474585Y565584D01*
X471786Y568861D01*
X469535Y572534D01*
X467886Y576515D01*
X466880Y580705D01*
X466544Y584976D01*
X466549Y585000D01*
Y702651D01*
X467819Y702801D01*
X468472Y700081D01*
X470400Y695427D01*
X473031Y691133D01*
X476303Y687303D01*
X480133Y684031D01*
X484427Y681400D01*
X489081Y679472D01*
X493979Y678296D01*
X499000Y677901D01*
X504021Y678296D01*
X508919Y679472D01*
X513573Y681400D01*
X517867Y684031D01*
X521697Y687303D01*
X524969Y691133D01*
X527600Y695427D01*
X529528Y700081D01*
X530704Y704979D01*
X531099Y710000D01*
X530704Y715021D01*
X529528Y719919D01*
X527600Y724573D01*
X524969Y728867D01*
X521697Y732697D01*
X517867Y735969D01*
X513573Y738600D01*
X508919Y740528D01*
X506213Y741178D01*
X506364Y742448D01*
X1064000Y742448D01*
X1064036Y742455D01*
X1068295Y742120D01*
D02*
G37*
%LPC*%
G36*
X934250Y738426D02*
Y729250D01*
X943426D01*
X943230Y730741D01*
X942172Y733295D01*
X940489Y735489D01*
X938295Y737172D01*
X935741Y738230D01*
X934250Y738426D01*
D02*
G37*
G36*
X931750D02*
X930259Y738230D01*
X927705Y737172D01*
X925511Y735489D01*
X923828Y733295D01*
X922770Y730741D01*
X922574Y729250D01*
X931750D01*
Y738426D01*
D02*
G37*
G36*
X958400Y738086D02*
X955789Y737743D01*
X953357Y736735D01*
X951268Y735132D01*
X949665Y733043D01*
X948657Y730611D01*
X948314Y728000D01*
X948657Y725389D01*
X949665Y722957D01*
X951268Y720868D01*
X953357Y719265D01*
X955789Y718257D01*
X958400Y717914D01*
X961011Y718257D01*
X963443Y719265D01*
X965532Y720868D01*
X967135Y722957D01*
X968143Y725389D01*
X968486Y728000D01*
X968143Y730611D01*
X967135Y733043D01*
X965532Y735132D01*
X963443Y736735D01*
X961011Y737743D01*
X958400Y738086D01*
D02*
G37*
G36*
X907600D02*
X904989Y737743D01*
X902557Y736735D01*
X900468Y735132D01*
X898865Y733043D01*
X897857Y730611D01*
X897514Y728000D01*
X897857Y725389D01*
X898865Y722957D01*
X900468Y720868D01*
X902557Y719265D01*
X904989Y718257D01*
X907600Y717914D01*
X910210Y718257D01*
X912643Y719265D01*
X914732Y720868D01*
X916335Y722957D01*
X917343Y725389D01*
X917686Y728000D01*
X917343Y730611D01*
X916335Y733043D01*
X914732Y735132D01*
X912643Y736735D01*
X910210Y737743D01*
X907600Y738086D01*
D02*
G37*
G36*
X886200Y738118D02*
X878200D01*
X875859Y737652D01*
X873874Y736326D01*
X872548Y734341D01*
X872083Y732000D01*
Y724000D01*
X872548Y721659D01*
X873874Y719674D01*
X875859Y718348D01*
X878200Y717883D01*
X886200D01*
X888541Y718348D01*
X890526Y719674D01*
X891852Y721659D01*
X892318Y724000D01*
Y732000D01*
X891852Y734341D01*
X890526Y736326D01*
X888541Y737652D01*
X886200Y738118D01*
D02*
G37*
G36*
X943426Y726750D02*
X934250D01*
Y717574D01*
X935741Y717770D01*
X938295Y718828D01*
X940489Y720511D01*
X942172Y722705D01*
X943230Y725259D01*
X943426Y726750D01*
D02*
G37*
G36*
X931750D02*
X922574D01*
X922770Y725259D01*
X923828Y722705D01*
X925511Y720511D01*
X927705Y718828D01*
X930259Y717770D01*
X931750Y717574D01*
Y726750D01*
D02*
G37*
G36*
X1003000Y703608D02*
X1000854Y703181D01*
X999035Y701965D01*
X997819Y700146D01*
X997392Y698000D01*
X997449Y697712D01*
X997438Y697601D01*
X997411Y697451D01*
X997373Y697312D01*
X997325Y697180D01*
X997266Y697052D01*
X997194Y696925D01*
X997107Y696796D01*
X997095Y696781D01*
X977627Y677314D01*
X964037D01*
X964018Y677316D01*
X963865Y677345D01*
X963725Y677384D01*
X963593Y677433D01*
X963465Y677493D01*
X963340Y677564D01*
X963215Y677651D01*
X963128Y677721D01*
X962965Y677965D01*
X961146Y679181D01*
X959000Y679608D01*
X956854Y679181D01*
X955035Y677965D01*
X953819Y676146D01*
X953392Y674000D01*
X953819Y671854D01*
X955035Y670035D01*
X956854Y668819D01*
X959000Y668392D01*
X961146Y668819D01*
X962965Y670035D01*
X963128Y670279D01*
X963215Y670349D01*
X963341Y670436D01*
X963465Y670508D01*
X963592Y670567D01*
X963725Y670616D01*
X963865Y670655D01*
X964018Y670684D01*
X964037Y670686D01*
X979000D01*
X980268Y670939D01*
X981343Y671657D01*
X1001781Y692095D01*
X1001796Y692107D01*
X1001925Y692194D01*
X1002052Y692266D01*
X1002180Y692325D01*
X1002312Y692373D01*
X1002451Y692411D01*
X1002601Y692438D01*
X1002712Y692449D01*
X1003000Y692392D01*
X1005146Y692819D01*
X1006965Y694035D01*
X1008181Y695854D01*
X1008608Y698000D01*
X1008181Y700146D01*
X1006965Y701965D01*
X1005146Y703181D01*
X1003000Y703608D01*
D02*
G37*
G36*
X655000Y737039D02*
X590000D01*
X589220Y736884D01*
X588558Y736442D01*
X588116Y735780D01*
X587961Y735000D01*
Y691975D01*
X564907D01*
X563639Y691723D01*
X562564Y691005D01*
X531146Y659587D01*
X528764D01*
X528745Y659589D01*
X528592Y659618D01*
X528452Y659657D01*
X528320Y659706D01*
X528192Y659765D01*
X528067Y659837D01*
X527942Y659924D01*
X527855Y659994D01*
X527692Y660238D01*
X525873Y661454D01*
X523727Y661881D01*
X521581Y661454D01*
X519762Y660238D01*
X518546Y658419D01*
X518119Y656273D01*
X518546Y654127D01*
X519460Y652758D01*
X519645Y651355D01*
X518310Y649357D01*
X517842Y647000D01*
X518310Y644643D01*
X519645Y642645D01*
X521643Y641311D01*
X524000Y640842D01*
X526357Y641311D01*
X528355Y642645D01*
X529689Y644643D01*
X530158Y647000D01*
X530055Y647520D01*
X530891Y648459D01*
X534382D01*
X535650Y648712D01*
X536725Y649430D01*
X568144Y680848D01*
X880334D01*
X880933Y679728D01*
X880819Y679558D01*
X880392Y677412D01*
X880450Y677124D01*
X880438Y677013D01*
X880411Y676863D01*
X880373Y676724D01*
X880325Y676592D01*
X880266Y676464D01*
X880194Y676337D01*
X880107Y676208D01*
X880095Y676193D01*
X878122Y674220D01*
X865812D01*
X865793Y674222D01*
X865640Y674252D01*
X865500Y674291D01*
X865368Y674340D01*
X865240Y674399D01*
X865116Y674471D01*
X864990Y674558D01*
X864903Y674628D01*
X864740Y674872D01*
X862921Y676087D01*
X860775Y676514D01*
X858629Y676087D01*
X856810Y674872D01*
X855594Y673053D01*
X855167Y670907D01*
X855594Y668761D01*
X856810Y666941D01*
X858629Y665726D01*
X860775Y665299D01*
X862921Y665726D01*
X864740Y666941D01*
X864903Y667185D01*
X864990Y667256D01*
X865116Y667342D01*
X865240Y667414D01*
X865368Y667474D01*
X865500Y667523D01*
X865640Y667562D01*
X865793Y667591D01*
X865812Y667593D01*
X879495D01*
X880763Y667845D01*
X881838Y668564D01*
X884781Y671507D01*
X884796Y671519D01*
X884925Y671606D01*
X885052Y671678D01*
X885180Y671737D01*
X885312Y671785D01*
X885451Y671822D01*
X885601Y671850D01*
X885712Y671861D01*
X886000Y671804D01*
X888146Y672231D01*
X889965Y673447D01*
X891181Y675266D01*
X891608Y677412D01*
X891181Y679558D01*
X891067Y679728D01*
X891666Y680848D01*
X907600D01*
X908868Y681100D01*
X909943Y681819D01*
X916848Y688724D01*
X917645Y688645D01*
X919643Y687310D01*
X922000Y686842D01*
X924357Y687310D01*
X926355Y688645D01*
X927690Y690643D01*
X928158Y693000D01*
X927690Y695357D01*
X926355Y697355D01*
X924462Y698619D01*
X924363Y698994D01*
X924385Y699979D01*
X925965Y701035D01*
X927181Y702854D01*
X927608Y705000D01*
X927181Y707146D01*
X925965Y708965D01*
X924146Y710181D01*
X922000Y710608D01*
X919854Y710181D01*
X918035Y708965D01*
X916819Y707146D01*
X916392Y705000D01*
X916450Y704712D01*
X916438Y704601D01*
X916411Y704451D01*
X916373Y704312D01*
X916325Y704180D01*
X916266Y704052D01*
X916194Y703925D01*
X916107Y703796D01*
X916095Y703781D01*
X904289Y691975D01*
X657039D01*
Y735000D01*
X656884Y735780D01*
X656442Y736442D01*
X655780Y736884D01*
X655000Y737039D01*
D02*
G37*
G36*
X1073000Y697608D02*
X1070854Y697181D01*
X1069035Y695965D01*
X1067819Y694146D01*
X1067392Y692000D01*
X1067449Y691712D01*
X1067438Y691601D01*
X1067411Y691451D01*
X1067373Y691312D01*
X1067325Y691180D01*
X1067266Y691052D01*
X1067194Y690925D01*
X1067107Y690796D01*
X1067095Y690781D01*
X1021657Y645343D01*
X1020939Y644268D01*
X1020686Y643000D01*
Y635037D01*
X1020684Y635018D01*
X1020655Y634865D01*
X1020616Y634725D01*
X1020567Y634593D01*
X1020508Y634465D01*
X1020436Y634340D01*
X1020349Y634215D01*
X1020279Y634128D01*
X1020035Y633965D01*
X1018819Y632146D01*
X1018392Y630000D01*
X1018819Y627854D01*
X1019015Y627561D01*
X1018392Y626207D01*
X1017700Y626123D01*
X1015843Y627979D01*
X1014768Y628698D01*
X1013500Y628950D01*
X1011429D01*
X1011359Y628936D01*
X1009465D01*
X1009268Y628963D01*
X1009068Y629003D01*
X1008870Y629053D01*
X1008674Y629116D01*
X1008502Y629181D01*
X1008057Y629392D01*
X1007836Y629519D01*
X1007722Y629558D01*
X1007146Y629942D01*
X1005000Y630369D01*
X1002854Y629942D01*
X1001035Y628727D01*
X999819Y626907D01*
X999392Y624761D01*
X999819Y622615D01*
X1001035Y620796D01*
X1002854Y619580D01*
X1005000Y619154D01*
X1007146Y619580D01*
X1008965Y620796D01*
X1009612Y621764D01*
X1009736Y621891D01*
X1009847Y622063D01*
X1009898Y622126D01*
X1009943Y622170D01*
X1009984Y622203D01*
X1010029Y622230D01*
X1010086Y622257D01*
X1010164Y622283D01*
X1010269Y622307D01*
X1010282Y622309D01*
X1011415D01*
X1011485Y622323D01*
X1012128D01*
X1014546Y619904D01*
X1015621Y619186D01*
X1016889Y618934D01*
X1028412D01*
X1029680Y619186D01*
X1030755Y619904D01*
X1033873Y623022D01*
X1034591Y624097D01*
X1034843Y625365D01*
Y642783D01*
X1061996Y669936D01*
X1068432D01*
X1069035Y669035D01*
X1070854Y667819D01*
X1073000Y667392D01*
X1075146Y667819D01*
X1076965Y669035D01*
X1078181Y670854D01*
X1078608Y673000D01*
X1078181Y675146D01*
X1076965Y676965D01*
X1075146Y678181D01*
X1073000Y678608D01*
X1070854Y678181D01*
X1069035Y676965D01*
X1068766Y676564D01*
X1063909D01*
X1063423Y677737D01*
X1071781Y686095D01*
X1071796Y686107D01*
X1071925Y686194D01*
X1072052Y686266D01*
X1072180Y686325D01*
X1072312Y686373D01*
X1072451Y686411D01*
X1072601Y686438D01*
X1072712Y686450D01*
X1073000Y686392D01*
X1075146Y686819D01*
X1076965Y688035D01*
X1078181Y689854D01*
X1078608Y692000D01*
X1078181Y694146D01*
X1076965Y695965D01*
X1075146Y697181D01*
X1073000Y697608D01*
D02*
G37*
G36*
X948050Y715558D02*
X945904Y715131D01*
X944085Y713915D01*
X942869Y712096D01*
X942442Y709950D01*
X942869Y707804D01*
X944085Y705985D01*
X945904Y704769D01*
X948050Y704342D01*
X950196Y704769D01*
X952015Y705985D01*
X952178Y706229D01*
X952265Y706299D01*
X952391Y706386D01*
X952515Y706458D01*
X952642Y706517D01*
X952775Y706566D01*
X952915Y706605D01*
X953068Y706634D01*
X953087Y706636D01*
X1019043D01*
X1035077Y690602D01*
X1035088Y690588D01*
X1035176Y690459D01*
X1035247Y690332D01*
X1035306Y690204D01*
X1035354Y690072D01*
X1035392Y689933D01*
X1035419Y689783D01*
X1035431Y689672D01*
X1035374Y689384D01*
X1035800Y687238D01*
X1037016Y685419D01*
X1038835Y684203D01*
X1040981Y683776D01*
X1043127Y684203D01*
X1044947Y685419D01*
X1046162Y687238D01*
X1046589Y689384D01*
X1046162Y691530D01*
X1044947Y693349D01*
X1043127Y694565D01*
X1040981Y694992D01*
X1040693Y694934D01*
X1040583Y694946D01*
X1040433Y694974D01*
X1040293Y695011D01*
X1040161Y695059D01*
X1040033Y695118D01*
X1039906Y695190D01*
X1039778Y695277D01*
X1039763Y695289D01*
X1022758Y712293D01*
X1021683Y713011D01*
X1020415Y713264D01*
X953087D01*
X953068Y713266D01*
X952915Y713295D01*
X952775Y713334D01*
X952643Y713383D01*
X952515Y713443D01*
X952390Y713514D01*
X952265Y713601D01*
X952178Y713671D01*
X952015Y713915D01*
X950196Y715131D01*
X948050Y715558D01*
D02*
G37*
G36*
X651750Y613608D02*
X649604Y613181D01*
X647785Y611965D01*
X647622Y611721D01*
X647535Y611651D01*
X647410Y611564D01*
X647285Y611493D01*
X647158Y611433D01*
X647025Y611384D01*
X646885Y611345D01*
X646732Y611316D01*
X646713Y611314D01*
X643037D01*
X643018Y611316D01*
X642865Y611345D01*
X642725Y611384D01*
X642592Y611433D01*
X642465Y611493D01*
X642340Y611564D01*
X642215Y611651D01*
X642128Y611721D01*
X641965Y611965D01*
X640146Y613181D01*
X638000Y613608D01*
X635854Y613181D01*
X634035Y611965D01*
X632819Y610146D01*
X632392Y608000D01*
X632819Y605854D01*
X634035Y604035D01*
X635854Y602819D01*
X638000Y602392D01*
X640146Y602819D01*
X641965Y604035D01*
X642128Y604279D01*
X642215Y604349D01*
X642340Y604436D01*
X642465Y604507D01*
X642592Y604567D01*
X642725Y604616D01*
X642865Y604655D01*
X643018Y604684D01*
X643037Y604686D01*
X646713D01*
X646732Y604684D01*
X646885Y604655D01*
X647025Y604616D01*
X647158Y604567D01*
X647285Y604507D01*
X647410Y604436D01*
X647535Y604349D01*
X647622Y604279D01*
X647785Y604035D01*
X649604Y602819D01*
X651750Y602392D01*
X653896Y602819D01*
X655715Y604035D01*
X656931Y605854D01*
X657358Y608000D01*
X656931Y610146D01*
X655715Y611965D01*
X653896Y613181D01*
X651750Y613608D01*
D02*
G37*
G36*
X936000Y621608D02*
X933854Y621181D01*
X932035Y619965D01*
X930819Y618146D01*
X930392Y616000D01*
X930819Y613854D01*
X932035Y612035D01*
X933854Y610819D01*
X936000Y610392D01*
X936288Y610449D01*
X936399Y610438D01*
X936549Y610411D01*
X936688Y610373D01*
X936820Y610325D01*
X936948Y610266D01*
X937075Y610194D01*
X937204Y610107D01*
X937219Y610095D01*
X943657Y603657D01*
X944732Y602939D01*
X946000Y602686D01*
X985963D01*
X985982Y602684D01*
X986135Y602655D01*
X986275Y602616D01*
X986408Y602567D01*
X986535Y602508D01*
X986660Y602436D01*
X986785Y602349D01*
X986872Y602279D01*
X987035Y602035D01*
X988854Y600819D01*
X991000Y600392D01*
X993146Y600819D01*
X994965Y602035D01*
X996181Y603854D01*
X996608Y606000D01*
X996181Y608146D01*
X994965Y609965D01*
X993146Y611181D01*
X991000Y611608D01*
X988854Y611181D01*
X987035Y609965D01*
X986872Y609721D01*
X986785Y609651D01*
X986659Y609564D01*
X986535Y609492D01*
X986408Y609433D01*
X986275Y609384D01*
X986135Y609345D01*
X985982Y609316D01*
X985963Y609314D01*
X947373D01*
X941905Y614781D01*
X941893Y614796D01*
X941806Y614925D01*
X941734Y615052D01*
X941675Y615180D01*
X941627Y615312D01*
X941590Y615451D01*
X941562Y615601D01*
X941551Y615712D01*
X941608Y616000D01*
X941181Y618146D01*
X939965Y619965D01*
X938146Y621181D01*
X936000Y621608D01*
D02*
G37*
G36*
X825000Y613608D02*
X822854Y613181D01*
X821035Y611965D01*
X819819Y610146D01*
X819392Y608000D01*
X819819Y605854D01*
X821035Y604035D01*
X822854Y602819D01*
X825000Y602392D01*
X827146Y602819D01*
X828965Y604035D01*
X829128Y604279D01*
X829215Y604349D01*
X829341Y604436D01*
X829465Y604507D01*
X829592Y604567D01*
X829725Y604616D01*
X829865Y604655D01*
X830018Y604684D01*
X830037Y604686D01*
X851628D01*
X860095Y596219D01*
X860107Y596204D01*
X860194Y596075D01*
X860266Y595948D01*
X860325Y595820D01*
X860373Y595688D01*
X860411Y595549D01*
X860438Y595399D01*
X860450Y595288D01*
X860392Y595000D01*
X860819Y592854D01*
X862035Y591035D01*
X862710Y590584D01*
X862325Y589314D01*
X859740D01*
X859722Y589316D01*
X859559Y589345D01*
X859406Y589385D01*
X859260Y589436D01*
X859117Y589499D01*
X858977Y589574D01*
X858840Y589661D01*
X858754Y589791D01*
X856934Y591006D01*
X854788Y591433D01*
X852642Y591006D01*
X850823Y589791D01*
X849607Y587971D01*
X849181Y585825D01*
X849607Y583679D01*
X850823Y581860D01*
X852642Y580644D01*
X854788Y580218D01*
X856934Y580644D01*
X858754Y581860D01*
X858976Y582194D01*
X859048Y582269D01*
X859161Y582368D01*
X859270Y582450D01*
X859379Y582517D01*
X859491Y582572D01*
X859608Y582618D01*
X859736Y582655D01*
X859878Y582684D01*
X859898Y582686D01*
X874312D01*
X875581Y582939D01*
X876656Y583657D01*
X884685Y591686D01*
X890963D01*
X890982Y591684D01*
X891135Y591655D01*
X891275Y591616D01*
X891408Y591567D01*
X891535Y591507D01*
X891660Y591436D01*
X891785Y591349D01*
X891872Y591279D01*
X892035Y591035D01*
X893854Y589819D01*
X896000Y589392D01*
X898146Y589819D01*
X899965Y591035D01*
X901181Y592854D01*
X901608Y595000D01*
X901181Y597146D01*
X899965Y598965D01*
X898146Y600181D01*
X896000Y600608D01*
X893854Y600181D01*
X892035Y598965D01*
X891872Y598721D01*
X891785Y598651D01*
X891660Y598564D01*
X891535Y598493D01*
X891408Y598433D01*
X891275Y598384D01*
X891135Y598345D01*
X890982Y598316D01*
X890963Y598314D01*
X883312D01*
X882044Y598061D01*
X880969Y597343D01*
X872940Y589314D01*
X869675D01*
X869290Y590584D01*
X869965Y591035D01*
X871181Y592854D01*
X871608Y595000D01*
X871181Y597146D01*
X869965Y598965D01*
X868146Y600181D01*
X866000Y600608D01*
X865712Y600550D01*
X865601Y600562D01*
X865451Y600589D01*
X865312Y600627D01*
X865180Y600675D01*
X865052Y600734D01*
X864925Y600806D01*
X864796Y600893D01*
X864781Y600905D01*
X855343Y610343D01*
X854268Y611061D01*
X853000Y611314D01*
X830037D01*
X830018Y611316D01*
X829865Y611345D01*
X829725Y611384D01*
X829592Y611433D01*
X829465Y611493D01*
X829340Y611564D01*
X829215Y611651D01*
X829128Y611721D01*
X828965Y611965D01*
X827146Y613181D01*
X825000Y613608D01*
D02*
G37*
G36*
X490000Y595060D02*
X479000D01*
X477173Y594820D01*
X475470Y594114D01*
X474007Y592992D01*
X472886Y591530D01*
X472180Y589827D01*
X471940Y588000D01*
X472180Y586173D01*
X472886Y584470D01*
X474007Y583008D01*
X475470Y581885D01*
X477173Y581180D01*
X479000Y580940D01*
X486534D01*
X504466Y563008D01*
X505929Y561885D01*
X507631Y561180D01*
X509459Y560940D01*
X812314D01*
X814141Y561180D01*
X815844Y561885D01*
X817306Y563008D01*
X817306Y563008D01*
X821992Y567694D01*
X823114Y569156D01*
X823820Y570859D01*
X824060Y572686D01*
Y581000D01*
X823820Y582827D01*
X823114Y584530D01*
X821992Y585993D01*
X820530Y587114D01*
X818827Y587820D01*
X817000Y588060D01*
X815173Y587820D01*
X813470Y587114D01*
X812008Y585993D01*
X810885Y584530D01*
X810180Y582827D01*
X809940Y581000D01*
Y575611D01*
X809389Y575060D01*
X512383D01*
X496257Y591187D01*
X496115Y591530D01*
X494992Y592992D01*
X493530Y594114D01*
X491827Y594820D01*
X490000Y595060D01*
D02*
G37*
%LPD*%
G36*
X1002965Y694500D02*
X1002634Y694491D01*
X1002312Y694458D01*
X1002000Y694401D01*
X1001698Y694319D01*
X1001405Y694213D01*
X1001123Y694083D01*
X1000849Y693929D01*
X1000586Y693750D01*
X1000332Y693547D01*
X1000087Y693319D01*
X998319Y695087D01*
X998547Y695332D01*
X998750Y695586D01*
X998929Y695849D01*
X999083Y696123D01*
X999213Y696405D01*
X999319Y696698D01*
X999401Y697000D01*
X999458Y697312D01*
X999491Y697634D01*
X999500Y697965D01*
X1002965Y694500D01*
D02*
G37*
G36*
X961740Y676222D02*
X961991Y676018D01*
X962252Y675838D01*
X962523Y675682D01*
X962805Y675550D01*
X963097Y675442D01*
X963400Y675358D01*
X963712Y675298D01*
X964036Y675262D01*
X964369Y675250D01*
Y672750D01*
X964036Y672738D01*
X963712Y672702D01*
X963400Y672642D01*
X963097Y672558D01*
X962805Y672450D01*
X962523Y672318D01*
X962252Y672162D01*
X961991Y671982D01*
X961740Y671778D01*
X961499Y671550D01*
Y676450D01*
X961740Y676222D01*
D02*
G37*
G36*
X921965Y701500D02*
X921634Y701491D01*
X921312Y701458D01*
X921000Y701401D01*
X920698Y701319D01*
X920405Y701213D01*
X920123Y701083D01*
X919849Y700929D01*
X919586Y700750D01*
X919332Y700547D01*
X919087Y700320D01*
X917320Y702087D01*
X917547Y702332D01*
X917750Y702586D01*
X917929Y702849D01*
X918083Y703122D01*
X918213Y703406D01*
X918319Y703698D01*
X918401Y704000D01*
X918458Y704312D01*
X918491Y704634D01*
X918500Y704965D01*
X921965Y701500D01*
D02*
G37*
G36*
X655000Y691975D02*
X590000D01*
Y735000D01*
X655000D01*
Y691975D01*
D02*
G37*
G36*
X919458Y690594D02*
X919233Y690814D01*
X918995Y691011D01*
X918744Y691184D01*
X918481Y691334D01*
X918204Y691461D01*
X917915Y691565D01*
X917613Y691646D01*
X917299Y691704D01*
X916971Y691739D01*
X916631Y691750D01*
Y694250D01*
X916971Y694262D01*
X917299Y694296D01*
X917613Y694354D01*
X917915Y694435D01*
X918204Y694539D01*
X918481Y694666D01*
X918744Y694816D01*
X918995Y694989D01*
X919233Y695186D01*
X919458Y695406D01*
Y690594D01*
D02*
G37*
G36*
X885965Y673912D02*
X885634Y673903D01*
X885312Y673870D01*
X885000Y673813D01*
X884698Y673731D01*
X884405Y673625D01*
X884122Y673495D01*
X883849Y673341D01*
X883586Y673162D01*
X883332Y672959D01*
X883087Y672731D01*
X881320Y674499D01*
X881547Y674743D01*
X881750Y674997D01*
X881929Y675261D01*
X882083Y675534D01*
X882213Y675817D01*
X882319Y676110D01*
X882401Y676412D01*
X882458Y676724D01*
X882491Y677046D01*
X882500Y677377D01*
X885965Y673912D01*
D02*
G37*
G36*
X863515Y673129D02*
X863766Y672925D01*
X864027Y672745D01*
X864298Y672589D01*
X864580Y672457D01*
X864872Y672349D01*
X865175Y672265D01*
X865488Y672205D01*
X865811Y672169D01*
X866144Y672157D01*
Y669657D01*
X865811Y669645D01*
X865488Y669609D01*
X865175Y669549D01*
X864872Y669465D01*
X864580Y669357D01*
X864298Y669225D01*
X864027Y669069D01*
X863766Y668889D01*
X863515Y668685D01*
X863275Y668457D01*
Y673357D01*
X863515Y673129D01*
D02*
G37*
G36*
X526467Y658495D02*
X526718Y658291D01*
X526979Y658111D01*
X527250Y657955D01*
X527532Y657823D01*
X527824Y657715D01*
X528127Y657631D01*
X528439Y657571D01*
X528763Y657535D01*
X529096Y657523D01*
Y655023D01*
X528763Y655011D01*
X528439Y654975D01*
X528127Y654915D01*
X527824Y654831D01*
X527532Y654723D01*
X527250Y654591D01*
X526979Y654435D01*
X526718Y654255D01*
X526467Y654051D01*
X526227Y653823D01*
Y658723D01*
X526467Y658495D01*
D02*
G37*
G36*
X528866Y649391D02*
X528641Y649152D01*
X528435Y648902D01*
X528248Y648642D01*
X528080Y648372D01*
X527931Y648092D01*
X527801Y647801D01*
X527690Y647500D01*
X527597Y647188D01*
X527524Y646867D01*
X527469Y646535D01*
X524535Y650459D01*
X524854Y650424D01*
X525165Y650418D01*
X525468Y650442D01*
X525763Y650495D01*
X526051Y650578D01*
X526331Y650690D01*
X526603Y650831D01*
X526867Y651002D01*
X527123Y651203D01*
X527372Y651433D01*
X528866Y649391D01*
D02*
G37*
G36*
X1072965Y688500D02*
X1072634Y688491D01*
X1072312Y688458D01*
X1072000Y688401D01*
X1071698Y688319D01*
X1071405Y688213D01*
X1071123Y688083D01*
X1070849Y687929D01*
X1070586Y687750D01*
X1070332Y687547D01*
X1070087Y687319D01*
X1068319Y689087D01*
X1068547Y689332D01*
X1068750Y689586D01*
X1068929Y689849D01*
X1069083Y690123D01*
X1069213Y690405D01*
X1069319Y690698D01*
X1069401Y691000D01*
X1069458Y691312D01*
X1069491Y691634D01*
X1069500Y691965D01*
X1072965Y688500D01*
D02*
G37*
G36*
X1025262Y635036D02*
X1025298Y634712D01*
X1025358Y634400D01*
X1025442Y634097D01*
X1025550Y633805D01*
X1025682Y633523D01*
X1025838Y633252D01*
X1026018Y632991D01*
X1026222Y632740D01*
X1026450Y632500D01*
X1021550D01*
X1021778Y632740D01*
X1021982Y632991D01*
X1022162Y633252D01*
X1022318Y633523D01*
X1022450Y633805D01*
X1022558Y634097D01*
X1022642Y634400D01*
X1022702Y634712D01*
X1022738Y635036D01*
X1022750Y635369D01*
X1025250D01*
X1025262Y635036D01*
D02*
G37*
G36*
X1007111Y627584D02*
X1007703Y627303D01*
X1008004Y627189D01*
X1008309Y627092D01*
X1008618Y627013D01*
X1008931Y626951D01*
X1009248Y626908D01*
X1009568Y626881D01*
X1009892Y626872D01*
X1010578Y624372D01*
X1010237Y624359D01*
X1009914Y624318D01*
X1009611Y624249D01*
X1009327Y624153D01*
X1009062Y624030D01*
X1008817Y623879D01*
X1008590Y623701D01*
X1008383Y623495D01*
X1008195Y623262D01*
X1008025Y623002D01*
X1006820Y627751D01*
X1007111Y627584D01*
D02*
G37*
G36*
X950790Y712172D02*
X951041Y711968D01*
X951302Y711788D01*
X951573Y711632D01*
X951855Y711500D01*
X952147Y711392D01*
X952450Y711308D01*
X952763Y711248D01*
X953086Y711212D01*
X953419Y711200D01*
Y708700D01*
X953086Y708688D01*
X952763Y708652D01*
X952450Y708592D01*
X952147Y708508D01*
X951855Y708400D01*
X951573Y708268D01*
X951302Y708112D01*
X951041Y707932D01*
X950790Y707728D01*
X950549Y707500D01*
Y712400D01*
X950790Y712172D01*
D02*
G37*
G36*
X1038313Y693837D02*
X1038567Y693634D01*
X1038830Y693455D01*
X1039104Y693301D01*
X1039387Y693171D01*
X1039679Y693065D01*
X1039982Y692983D01*
X1040293Y692926D01*
X1040615Y692893D01*
X1040946Y692884D01*
X1037481Y689419D01*
X1037473Y689750D01*
X1037439Y690072D01*
X1037382Y690384D01*
X1037300Y690686D01*
X1037195Y690979D01*
X1037064Y691262D01*
X1036910Y691535D01*
X1036731Y691798D01*
X1036528Y692052D01*
X1036301Y692297D01*
X1038068Y694064D01*
X1038313Y693837D01*
D02*
G37*
G36*
X649250Y605550D02*
X649010Y605778D01*
X648759Y605982D01*
X648498Y606162D01*
X648227Y606318D01*
X647945Y606450D01*
X647653Y606558D01*
X647350Y606642D01*
X647038Y606702D01*
X646714Y606738D01*
X646381Y606750D01*
Y609250D01*
X646714Y609262D01*
X647038Y609298D01*
X647350Y609358D01*
X647653Y609442D01*
X647945Y609550D01*
X648227Y609682D01*
X648498Y609838D01*
X648759Y610018D01*
X649010Y610222D01*
X649250Y610450D01*
Y605550D01*
D02*
G37*
G36*
X640740Y610222D02*
X640991Y610018D01*
X641252Y609838D01*
X641523Y609682D01*
X641805Y609550D01*
X642097Y609442D01*
X642400Y609358D01*
X642712Y609298D01*
X643036Y609262D01*
X643369Y609250D01*
Y606750D01*
X643036Y606738D01*
X642712Y606702D01*
X642400Y606642D01*
X642097Y606558D01*
X641805Y606450D01*
X641523Y606318D01*
X641252Y606162D01*
X640991Y605982D01*
X640740Y605778D01*
X640499Y605550D01*
Y610450D01*
X640740Y610222D01*
D02*
G37*
G36*
X939509Y615634D02*
X939542Y615312D01*
X939599Y615000D01*
X939681Y614698D01*
X939787Y614406D01*
X939917Y614123D01*
X940071Y613849D01*
X940250Y613586D01*
X940453Y613332D01*
X940680Y613087D01*
X938913Y611320D01*
X938668Y611547D01*
X938414Y611750D01*
X938151Y611929D01*
X937878Y612083D01*
X937595Y612213D01*
X937302Y612319D01*
X937000Y612401D01*
X936688Y612458D01*
X936366Y612491D01*
X936035Y612500D01*
X939500Y615965D01*
X939509Y615634D01*
D02*
G37*
G36*
X988501Y603550D02*
X988260Y603778D01*
X988009Y603982D01*
X987748Y604162D01*
X987477Y604318D01*
X987195Y604450D01*
X986903Y604558D01*
X986600Y604642D01*
X986288Y604702D01*
X985964Y604738D01*
X985631Y604750D01*
Y607250D01*
X985964Y607262D01*
X986288Y607298D01*
X986600Y607358D01*
X986903Y607442D01*
X987195Y607550D01*
X987477Y607682D01*
X987748Y607838D01*
X988009Y608018D01*
X988260Y608222D01*
X988501Y608450D01*
Y603550D01*
D02*
G37*
G36*
X827740Y610222D02*
X827991Y610018D01*
X828252Y609838D01*
X828523Y609682D01*
X828805Y609550D01*
X829097Y609442D01*
X829400Y609358D01*
X829713Y609298D01*
X830036Y609262D01*
X830369Y609250D01*
Y606750D01*
X830036Y606738D01*
X829713Y606702D01*
X829400Y606642D01*
X829097Y606558D01*
X828805Y606450D01*
X828523Y606318D01*
X828252Y606162D01*
X827991Y605982D01*
X827740Y605778D01*
X827499Y605550D01*
Y610450D01*
X827740Y610222D01*
D02*
G37*
G36*
X863332Y599453D02*
X863586Y599250D01*
X863849Y599071D01*
X864122Y598917D01*
X864405Y598787D01*
X864698Y598681D01*
X865000Y598599D01*
X865312Y598542D01*
X865634Y598509D01*
X865965Y598500D01*
X862500Y595035D01*
X862491Y595366D01*
X862458Y595688D01*
X862401Y596000D01*
X862319Y596302D01*
X862213Y596595D01*
X862083Y596878D01*
X861929Y597151D01*
X861750Y597414D01*
X861547Y597668D01*
X861320Y597913D01*
X863087Y599680D01*
X863332Y599453D01*
D02*
G37*
G36*
X893501Y592550D02*
X893260Y592778D01*
X893009Y592982D01*
X892748Y593162D01*
X892477Y593318D01*
X892195Y593450D01*
X891903Y593558D01*
X891600Y593642D01*
X891288Y593702D01*
X890964Y593738D01*
X890631Y593750D01*
Y596250D01*
X890964Y596262D01*
X891288Y596298D01*
X891600Y596358D01*
X891903Y596442D01*
X892195Y596550D01*
X892477Y596682D01*
X892748Y596838D01*
X893009Y597018D01*
X893260Y597222D01*
X893501Y597450D01*
Y592550D01*
D02*
G37*
G36*
X857415Y588179D02*
X857677Y587984D01*
X857947Y587812D01*
X858226Y587663D01*
X858514Y587537D01*
X858811Y587434D01*
X859116Y587353D01*
X859430Y587296D01*
X859753Y587262D01*
X860085Y587250D01*
X860219Y584750D01*
X859884Y584738D01*
X859560Y584700D01*
X859249Y584638D01*
X858950Y584551D01*
X858663Y584438D01*
X858388Y584301D01*
X858124Y584139D01*
X857873Y583952D01*
X857634Y583740D01*
X857407Y583503D01*
X857162Y588397D01*
X857415Y588179D01*
D02*
G37*
D10*
X1031529Y625365D02*
Y644156D01*
X1060623Y673250D02*
X1072750D01*
X1031529Y644156D02*
X1060623Y673250D01*
X1024000Y630000D02*
Y643000D01*
X1073000Y692000D01*
X1028412Y622248D02*
X1031529Y625365D01*
X1016889Y622248D02*
X1028412D01*
X946000Y606000D02*
X991000D01*
X936000Y616000D02*
X946000Y606000D01*
X1072750Y673250D02*
X1073000Y673000D01*
X1013500Y625636D02*
X1016889Y622248D01*
X1011429Y625636D02*
X1013500D01*
X1011415Y625622D02*
X1011429Y625636D01*
X1005861Y625622D02*
X1011415D01*
X1005000Y624761D02*
X1005861Y625622D01*
X566771Y684162D02*
X907600D01*
X916438Y693000D01*
X905662Y688662D02*
X922000Y705000D01*
X564907Y688662D02*
X905662D01*
X916438Y693000D02*
X922000D01*
X532518Y656273D02*
X564907Y688662D01*
X534382Y651773D02*
X566771Y684162D01*
X529480Y651773D02*
X534382D01*
X523727Y656273D02*
X532518D01*
X524707Y647000D02*
X529480Y651773D01*
X524000Y647000D02*
X524707D01*
X879495Y670907D02*
X886000Y677412D01*
X860775Y670907D02*
X879495D01*
X638000Y608000D02*
X651750D01*
X854788Y586000D02*
X874312D01*
X883312Y595000D01*
X896000D01*
X853000Y608000D02*
X866000Y595000D01*
X825000Y608000D02*
X853000D01*
X1020415Y709950D02*
X1040981Y689384D01*
X948050Y709950D02*
X1020415D01*
X959000Y674000D02*
X979000D01*
X1003000Y698000D01*
D71*
X509459Y568000D02*
X812314D01*
X490000Y587459D02*
X509459Y568000D01*
X817000Y572686D02*
Y575000D01*
Y581000D01*
X812314Y568000D02*
X817000Y572686D01*
X490000Y587459D02*
Y588000D01*
X479000D02*
X490000D01*
D73*
X1059000Y590000D02*
D03*
X499000Y710000D02*
D03*
D74*
X958400Y728000D02*
D03*
X933000D02*
D03*
X907600D02*
D03*
D75*
X882200D02*
D03*
D76*
X1024727Y615273D02*
D03*
X507000Y651000D02*
D03*
X537462Y637026D02*
D03*
X1005500Y615000D02*
D03*
X991000Y581000D02*
D03*
Y606000D02*
D03*
X969000Y577000D02*
D03*
Y593000D02*
D03*
X1073000Y692000D02*
D03*
Y673000D02*
D03*
X1024000Y630000D02*
D03*
X1005000Y624761D02*
D03*
X617350Y696000D02*
D03*
X607350D02*
D03*
X627350D02*
D03*
X637350D02*
D03*
X617350Y714403D02*
D03*
X607350D02*
D03*
X627350D02*
D03*
X637350D02*
D03*
Y705000D02*
D03*
X607350D02*
D03*
X627350D02*
D03*
X617350D02*
D03*
X886000Y677412D02*
D03*
X860775Y670907D02*
D03*
X616000Y656278D02*
D03*
X651750Y608000D02*
D03*
X638000D02*
D03*
X629350Y677000D02*
D03*
X617000D02*
D03*
X604000D02*
D03*
X830000Y667750D02*
D03*
X523727Y656273D02*
D03*
X898000Y673000D02*
D03*
X922000Y705000D02*
D03*
X867000Y641000D02*
D03*
X524000Y647000D02*
D03*
X934047Y634464D02*
D03*
X479000Y588000D02*
D03*
X524000Y600000D02*
D03*
X568000Y601000D02*
D03*
Y635000D02*
D03*
X854788Y585825D02*
D03*
X896000Y595000D02*
D03*
X865788Y577825D02*
D03*
X676000Y586000D02*
D03*
X722000D02*
D03*
X769000D02*
D03*
X817000Y594000D02*
D03*
Y575000D02*
D03*
Y581000D02*
D03*
X825000Y608000D02*
D03*
X866000Y595000D02*
D03*
X946000Y695000D02*
D03*
X922000Y693000D02*
D03*
X934000Y648000D02*
D03*
X936000Y616000D02*
D03*
X1003000Y698000D02*
D03*
X1040981Y689384D02*
D03*
X948050Y709950D02*
D03*
X490000Y613000D02*
D03*
X479000D02*
D03*
X959000Y674000D02*
D03*
X867000Y633000D02*
D03*
X490000Y588000D02*
D03*
D77*
X1042835Y606164D02*
D03*
X1036140Y590000D02*
D03*
X1042835Y573835D02*
D03*
X1059000Y567140D02*
D03*
X1075164Y573835D02*
D03*
X1081860Y590000D02*
D03*
X1075164Y606164D02*
D03*
X1059000Y612860D02*
D03*
X482836Y726164D02*
D03*
X476140Y710000D02*
D03*
X482836Y693836D02*
D03*
X499000Y687140D02*
D03*
X515164Y693836D02*
D03*
X521860Y710000D02*
D03*
X515164Y726164D02*
D03*
X499000Y732860D02*
D03*
M02*
