M48
;Layer_Color=9474304
;FILE_FORMAT=4:4
METRIC,LZ
;TYPE=PLATED
T1F00S00C0.3000
T2F00S00C0.9000
;TYPE=NON_PLATED
T3F00S00C3.2000
%
T01
X00817Y00575
Y00581
Y00594
X00825Y00608
X00854788Y00585825
X00865788Y00577825
X00866Y00595
X00896
X00936Y00616
X00934047Y00634464
X00934Y00648
X00959Y00674
X00946Y00695
X0094805Y0070995
X00922Y00705
Y00693
X00898Y00673
X00886Y00677412
X00860775Y00670907
X0083Y0066775
X00867Y00641
Y00633
X00969Y00593
Y00577
X00991Y00581
Y00606
X010055Y00615
X01005Y00624761
X01024Y0063
X01024727Y00615273
X01042835Y00606164
X0103614Y0059
X01042835Y00573835
X01059Y0056714
X01075164Y00573835
X0108186Y0059
X01075164Y00606164
X01059Y0061286
X01073Y00673
Y00692
X01040981Y00689384
X01003Y00698
X00769Y00586
X00722
X00676
X0065175Y00608
X00638
X00616Y00656278
X00617Y00677
X0062935
X0062735Y00696
Y00705
Y00714403
X0063735
Y00705
Y00696
X0061735
Y00705
Y00714403
X0060735
Y00705
Y00696
X00604Y00677
X00568Y00635
X00537462Y00637026
X00524Y00647
X00523727Y00656273
X00507Y00651
X00499Y0068714
X00482836Y00693836
X0047614Y0071
X00482836Y00726164
X00499Y0073286
X00515164Y00726164
X0052186Y0071
X00515164Y00693836
X00524Y006
X00568Y00601
X0049Y00613
X00479
Y00588
X0049
T02
X008822Y00728
X009076
X00933
X009584
T03
X01059Y0059
X00499Y0071
M30
